<svg width="687" height="359" viewBox="0 0 687 359" fill="none" xmlns="http://www.w3.org/2000/svg">
<g opacity="0.68">
<path opacity="0.47" d="M611.657 168.716C608.938 141.689 595.858 114.617 573.203 95.2691C537.902 65.1221 484.503 57.5241 437.703 64.4931C418.1 67.4121 398.661 72.5831 378.589 70.9561C349.315 68.5831 323.528 52.3101 296.875 40.3821C260.594 24.1451 219.004 15.4061 180.433 22.4721C136.7 30.4831 100.843 60.7421 96.565 100.891C94.626 119.083 114.326 151.132 108.109 168.373C101.803 185.859 55.764 239.421 56.899 280.161C58.03 320.749 68.633 333.373 83.617 354.001H95.594H546.945H572.922C582.252 333.1 589.562 316.382 578.638 288.935C569.91 267.005 593.623 248.944 602.798 228.53C610.96 210.361 613.648 188.512 611.657 168.716Z" fill="#9FBFFF"/>
</g>
<path opacity="0.41" d="M4.889 172.794C-4.439 154.525 2.81 132.154 21.079 122.826C39.348 113.498 74.412 114.266 83.74 132.535C93.068 150.804 64.948 166.402 53.458 183.394C37.433 207.092 14.216 191.062 4.889 172.794Z" fill="#9FBFFF"/>
<path opacity="0.41" d="M646.316 243.505C655.251 253.189 655.978 267.052 647.94 274.468C639.902 281.885 620.557 285.2 611.622 275.516C602.687 265.832 614.799 253.691 617.521 242.519C621.317 226.937 637.381 233.821 646.316 243.505Z" fill="#9FBFFF"/>
<path opacity="0.41" d="M571.091 25.593C581.457 20.121 594.296 24.089 599.768 34.455C605.24 44.821 605.074 64.862 594.708 70.334C584.342 75.806 575.211 59.86 565.412 53.427C551.746 44.455 560.725 31.064 571.091 25.593Z" fill="#9FBFFF"/>
<g opacity="0.43">
<path d="M557.678 330.088C562.446 306.383 554.803 286.163 552.896 262.919C551.091 240.913 558.907 222.406 563.243 201.447C567.102 182.794 565.816 161.666 560.972 143.333C554.358 118.303 539.126 95.1271 517.181 80.9981C482.986 58.9821 437.383 61.5751 399.611 76.7181C383.79 83.0611 368.467 91.5011 351.523 93.6361C326.811 96.7491 302.759 86.0981 278.686 79.7081C245.917 71.0091 209.945 70.3641 179.027 84.0931C143.972 99.6591 119.046 134.799 121.958 173.502C123.278 191.039 130.028 208.345 127.638 225.767C125.214 243.436 114.718 258.218 109.161 274.859C101.577 297.573 100.886 330.954 113.08 354.001H549.468C553.233 346.464 556.007 338.394 557.678 330.088Z" fill="#9FBFFF"/>
</g>
<g opacity="0.47">
<path d="M476.532 255.821C475.139 241.5 468.438 227.155 456.831 216.903C438.746 200.929 411.388 196.902 387.412 200.595C377.369 202.142 367.41 204.882 357.127 204.019C342.129 202.761 328.918 194.139 315.263 187.818C296.675 179.214 275.368 174.584 255.607 178.328C233.202 182.573 214.832 198.607 212.64 219.881C211.647 229.521 221.739 246.503 218.554 255.639C215.323 264.905 191.736 293.286 192.318 314.874C192.897 336.381 198.33 343.07 206.006 354.001H212.142H443.378H456.686C461.466 342.926 465.211 334.067 459.614 319.523C455.142 307.903 467.291 298.332 471.991 287.515C476.175 277.888 477.552 266.31 476.532 255.821Z" fill="#9FBFFF"/>
</g>
<path d="M680.302 357.133H30.169C29.296 357.133 28.588 356.425 28.588 355.552C28.588 354.679 29.296 353.971 30.169 353.971H680.302C681.175 353.971 681.883 354.679 681.883 355.552C681.882 356.425 681.175 357.133 680.302 357.133Z" fill="#9FBFFF"/>
<path d="M655.5 212C657.985 212 660 209.985 660 207.5C660 205.015 657.985 203 655.5 203C653.015 203 651 205.015 651 207.5C651 209.985 653.015 212 655.5 212Z" fill="#17014C"/>
<path d="M623.5 336C625.433 336 627 334.433 627 332.5C627 330.567 625.433 329 623.5 329C621.567 329 620 330.567 620 332.5C620 334.433 621.567 336 623.5 336Z" fill="#4E69FF"/>
<path d="M80.5 56C82.9853 56 85 53.9853 85 51.5C85 49.0147 82.9853 47 80.5 47C78.0147 47 76 49.0147 76 51.5C76 53.9853 78.0147 56 80.5 56Z" fill="#4E69FF"/>
<path d="M38.147 319.427C38.147 322.067 36.007 324.206 33.367 324.206C30.727 324.206 28.588 322.066 28.588 319.427C28.588 316.787 30.728 314.648 33.367 314.648C36.007 314.647 38.147 316.787 38.147 319.427Z" fill="#17014C"/>
<path d="M51.5 75C52.3284 75 53 74.3284 53 73.5C53 72.6716 52.3284 72 51.5 72C50.6716 72 50 72.6716 50 73.5C50 74.3284 50.6716 75 51.5 75Z" fill="#17014C"/>
<path d="M435.007 15.442C433.621 21.931 427.237 26.068 420.748 24.682C414.259 23.296 410.122 16.912 411.508 10.423C412.894 3.93402 419.278 -0.20298 425.766 1.18302C432.256 2.57002 436.393 8.95402 435.007 15.442Z" fill="#4E69FF"/>
<path d="M624.506 33.444C624.085 35.415 622.147 36.671 620.176 36.25C618.205 35.829 616.949 33.891 617.37 31.92C617.791 29.949 619.729 28.693 621.7 29.114C623.67 29.535 624.926 31.474 624.506 33.444Z" fill="#FFB54A"/>
<path d="M154.641 10.2289C154.22 12.1999 152.282 13.4559 150.311 13.0349C148.34 12.6139 147.084 10.6749 147.505 8.70491C147.926 6.73391 149.864 5.47791 151.835 5.89891C153.806 6.31991 155.062 8.25791 154.641 10.2289Z" fill="#FFB54A"/>
<path d="M654.568 115.583C654.147 117.554 652.209 118.81 650.238 118.389C648.267 117.968 647.011 116.03 647.432 114.059C647.853 112.088 649.791 110.832 651.762 111.253C653.733 111.674 654.989 113.612 654.568 115.583Z" fill="#4E69FF"/>
<path d="M391.915 26.8771C391.585 28.4221 390.065 29.4081 388.52 29.0781C386.975 28.7481 385.989 27.2281 386.319 25.6821C386.649 24.1371 388.169 23.1521 389.715 23.4821C391.259 23.8121 392.245 25.3321 391.915 26.8771Z" fill="#17014C"/>
<path d="M346.031 143C377.77 143 403.5 117.27 403.5 85.531C403.5 53.7918 377.77 28.062 346.031 28.062C314.292 28.062 288.562 53.7918 288.562 85.531C288.562 117.27 314.292 143 346.031 143Z" fill="#1B1B25"/>
<path d="M339.969 136.938C371.708 136.938 397.438 111.208 397.438 79.469C397.438 47.7297 371.708 22 339.969 22C308.23 22 282.5 47.7297 282.5 79.469C282.5 111.208 308.23 136.938 339.969 136.938Z" fill="#FFB54A"/>
<path d="M339.969 125.867C314.447 125.867 293.683 105.103 293.683 79.5809C293.683 54.0589 314.447 33.2949 339.969 33.2949C365.491 33.2949 386.255 54.0589 386.255 79.5809C386.255 105.104 365.491 125.867 339.969 125.867ZM339.969 36.2959C316.101 36.2959 296.683 55.7139 296.683 79.5819C296.683 103.45 316.101 122.868 339.969 122.868C363.837 122.868 383.255 103.45 383.255 79.5819C383.255 55.7139 363.837 36.2959 339.969 36.2959Z" fill="#FCF0E3"/>
<path d="M336.587 100.331C333.699 99.9759 330.913 99.2549 328.227 98.1659C325.539 97.0779 323.086 95.6909 320.866 94.0019L326.062 86.4079C327.882 87.7849 329.648 88.9289 331.358 89.8389C333.067 90.7499 334.922 91.4039 336.921 91.8039V81.2129C334.523 80.5459 332.424 79.8139 330.626 79.0149C328.827 78.2149 327.339 77.2609 326.162 76.1499C324.985 75.0409 324.098 73.7419 323.498 72.2529C322.898 70.7659 322.599 69.0459 322.599 67.0899V66.9569C322.599 65.0919 322.932 63.4049 323.598 61.8939C324.264 60.3849 325.207 59.0739 326.429 57.9639C327.65 56.8549 329.127 55.9549 330.859 55.2659C332.591 54.5779 334.501 54.1229 336.588 53.8999V50.0359H343.516V54.0329C345.913 54.3889 348.123 54.9769 350.144 55.7979C352.165 56.6199 354.084 57.6749 355.906 58.9619L351.443 66.7559C350.111 65.8679 348.756 65.0799 347.38 64.3909C346.003 63.7029 344.605 63.1809 343.184 62.8259V72.8849C348.247 74.2629 351.92 76.0609 354.209 78.2809C356.496 80.5019 357.64 83.4769 357.64 87.2069V87.3399C357.64 89.2049 357.295 90.8929 356.608 92.4029C355.919 93.9129 354.964 95.2239 353.743 96.3329C352.521 97.4439 351.046 98.3539 349.313 99.0639C347.581 99.7749 345.65 100.241 343.518 100.463V107.058H336.59V100.331H336.587ZM336.92 62.2279C335.321 62.4509 334.155 62.9279 333.422 63.6599C332.69 64.3929 332.323 65.2919 332.323 66.3579V66.4909C332.323 67.5129 332.634 68.3899 333.256 69.1219C333.877 69.8549 335.098 70.5539 336.92 71.2209V62.2279ZM343.182 92.1369C346.334 91.6489 347.912 90.2279 347.912 87.8739V87.7409C347.912 86.5869 347.579 85.6429 346.913 84.9099C346.246 84.1769 345.003 83.4779 343.183 82.8119V92.1369H343.182Z" fill="#1B1B25"/>
<path d="M346.031 143C377.77 143 403.5 117.27 403.5 85.531C403.5 53.7918 377.77 28.062 346.031 28.062C314.292 28.062 288.562 53.7918 288.562 85.531C288.562 117.27 314.292 143 346.031 143Z" fill="#1B1B25"/>
<path d="M339.969 136.938C371.708 136.938 397.438 111.208 397.438 79.469C397.438 47.7297 371.708 22 339.969 22C308.23 22 282.5 47.7297 282.5 79.469C282.5 111.208 308.23 136.938 339.969 136.938Z" fill="#FFB54A"/>
<path d="M339.969 125.867C314.447 125.867 293.683 105.103 293.683 79.5809C293.683 54.0589 314.447 33.2949 339.969 33.2949C365.491 33.2949 386.255 54.0589 386.255 79.5809C386.255 105.104 365.491 125.867 339.969 125.867ZM339.969 36.2959C316.101 36.2959 296.683 55.7139 296.683 79.5819C296.683 103.45 316.101 122.868 339.969 122.868C363.837 122.868 383.255 103.45 383.255 79.5819C383.255 55.7139 363.837 36.2959 339.969 36.2959Z" fill="#FCF0E3"/>
<path d="M336.587 100.331C333.699 99.9759 330.913 99.2549 328.227 98.1659C325.539 97.0779 323.086 95.6909 320.866 94.0019L326.062 86.4079C327.882 87.7849 329.648 88.9289 331.358 89.8389C333.067 90.7499 334.922 91.4039 336.921 91.8039V81.2129C334.523 80.5459 332.424 79.8139 330.626 79.0149C328.827 78.2149 327.339 77.2609 326.162 76.1499C324.985 75.0409 324.098 73.7419 323.498 72.2529C322.898 70.7659 322.599 69.0459 322.599 67.0899V66.9569C322.599 65.0919 322.932 63.4049 323.598 61.8939C324.264 60.3849 325.207 59.0739 326.429 57.9639C327.65 56.8549 329.127 55.9549 330.859 55.2659C332.591 54.5779 334.501 54.1229 336.588 53.8999V50.0359H343.516V54.0329C345.913 54.3889 348.123 54.9769 350.144 55.7979C352.165 56.6199 354.084 57.6749 355.906 58.9619L351.443 66.7559C350.111 65.8679 348.756 65.0799 347.38 64.3909C346.003 63.7029 344.605 63.1809 343.184 62.8259V72.8849C348.247 74.2629 351.92 76.0609 354.209 78.2809C356.496 80.5019 357.64 83.4769 357.64 87.2069V87.3399C357.64 89.2049 357.295 90.8929 356.608 92.4029C355.919 93.9129 354.964 95.2239 353.743 96.3329C352.521 97.4439 351.046 98.3539 349.313 99.0639C347.581 99.7749 345.65 100.241 343.518 100.463V107.058H336.59V100.331H336.587ZM336.92 62.2279C335.321 62.4509 334.155 62.9279 333.422 63.6599C332.69 64.3929 332.323 65.2919 332.323 66.3579V66.4909C332.323 67.5129 332.634 68.3899 333.256 69.1219C333.877 69.8549 335.098 70.5539 336.92 71.2209V62.2279ZM343.182 92.1369C346.334 91.6489 347.912 90.2279 347.912 87.8739V87.7409C347.912 86.5869 347.579 85.6429 346.913 84.9099C346.246 84.1769 345.003 83.4779 343.183 82.8119V92.1369H343.182Z" fill="#1B1B25"/>
<path d="M282.707 78.8739C297.068 78.8739 308.71 67.232 308.71 52.8709C308.71 38.5099 297.068 26.8679 282.707 26.8679C268.346 26.8679 256.704 38.5099 256.704 52.8709C256.704 67.232 268.346 78.8739 282.707 78.8739Z" fill="#1B1B25"/>
<path d="M279.965 76.132C294.326 76.132 305.968 64.49 305.968 50.129C305.968 35.7679 294.326 24.126 279.965 24.126C265.604 24.126 253.962 35.7679 253.962 50.129C253.962 64.49 265.604 76.132 279.965 76.132Z" fill="#FFB54A"/>
<path d="M279.965 71.1231C268.417 71.1231 259.022 61.7281 259.022 50.1801C259.022 38.6321 268.417 29.2371 279.965 29.2371C291.513 29.2371 300.908 38.6321 300.908 50.1801C300.908 61.7281 291.513 71.1231 279.965 71.1231ZM279.965 30.5941C269.166 30.5941 260.379 39.3801 260.379 50.1801C260.379 60.9791 269.165 69.7661 279.965 69.7661C290.765 69.7661 299.551 60.9801 299.551 50.1801C299.55 39.3801 290.764 30.5941 279.965 30.5941Z" fill="#FCF0E3"/>
<path d="M278.435 59.568C277.129 59.407 275.868 59.081 274.652 58.589C273.436 58.097 272.326 57.469 271.322 56.705L273.673 53.268C274.497 53.891 275.295 54.409 276.069 54.82C276.842 55.232 277.682 55.528 278.586 55.709V50.917C277.501 50.615 276.551 50.284 275.737 49.922C274.923 49.561 274.25 49.129 273.718 48.626C273.185 48.124 272.783 47.536 272.512 46.863C272.241 46.19 272.105 45.411 272.105 44.527V44.466C272.105 43.622 272.256 42.859 272.557 42.176C272.858 41.493 273.285 40.9 273.838 40.398C274.391 39.896 275.059 39.489 275.842 39.177C276.626 38.866 277.489 38.66 278.434 38.559V36.811H281.569V38.62C282.654 38.781 283.654 39.047 284.568 39.419C285.482 39.791 286.351 40.268 287.176 40.851L285.156 44.377C284.553 43.976 283.94 43.619 283.317 43.307C282.694 42.995 282.061 42.76 281.418 42.599V47.15C283.709 47.773 285.372 48.587 286.407 49.591C287.442 50.596 287.959 51.942 287.959 53.63V53.691C287.959 54.535 287.803 55.298 287.492 55.981C287.18 56.665 286.748 57.257 286.196 57.759C285.643 58.261 284.975 58.673 284.192 58.995C283.409 59.317 282.534 59.528 281.57 59.628V62.612H278.435V59.568ZM278.586 42.328C277.862 42.429 277.335 42.644 277.003 42.976C276.672 43.307 276.506 43.714 276.506 44.197V44.257C276.506 44.72 276.646 45.116 276.928 45.448C277.209 45.779 277.761 46.096 278.586 46.397V42.328ZM281.419 55.861C282.846 55.64 283.559 54.997 283.559 53.932V53.872C283.559 53.35 283.409 52.923 283.107 52.591C282.806 52.259 282.243 51.943 281.419 51.642V55.861Z" fill="#1B1B25"/>
<path d="M250.596 96.823C250.596 90.586 245.54 85.531 239.304 85.531C245.541 85.531 250.596 80.475 250.596 74.239C250.596 80.475 255.652 85.531 261.888 85.531C255.652 85.531 250.596 90.586 250.596 96.823Z" fill="white"/>
<path d="M383.255 153.596C383.255 149.016 379.542 145.303 374.962 145.303C379.542 145.303 383.255 141.59 383.255 137.01C383.255 141.59 386.968 145.303 391.548 145.303C386.968 145.303 383.255 149.016 383.255 153.596Z" fill="white"/>
<path d="M329.049 193.535C329.049 185.113 322.222 178.285 313.799 178.285C322.221 178.285 329.049 171.458 329.049 163.035C329.049 171.457 335.877 178.285 344.299 178.285C335.876 178.286 329.049 185.113 329.049 193.535Z" fill="white"/>
<path d="M381.696 75.8769C381.696 67.9849 375.298 61.5869 367.406 61.5869C375.298 61.5869 381.696 55.1889 381.696 47.2959C381.696 55.1879 388.094 61.5869 395.986 61.5869C388.094 61.5859 381.696 67.9839 381.696 75.8769Z" fill="#FCF0E3"/>
<path d="M429.466 85.5309C429.466 81.1769 425.937 77.6479 421.583 77.6479C425.936 77.6479 429.466 74.1189 429.466 69.7649C429.466 74.1189 432.995 77.6479 437.349 77.6479C432.996 77.6479 429.466 81.1769 429.466 85.5309Z" fill="white"/>
<path d="M187.917 59.229H100.117C91.087 59.229 83.766 66.549 83.766 75.58C83.766 84.61 91.086 91.93 100.117 91.93H172.475L182.43 101.001V91.93H187.918C196.948 91.93 204.269 84.61 204.269 75.58C204.267 66.549 196.947 59.229 187.917 59.229Z" fill="#4E69FF"/>
<path d="M108.034 73.3261C109.179 72.3751 109.908 70.9421 109.908 69.3371C109.908 66.4741 107.587 64.1541 104.725 64.1541C101.862 64.1541 99.542 66.4751 99.542 69.3371C99.542 70.9411 100.271 72.3751 101.416 73.3261C97.74 74.6761 95.112 78.197 95.112 82.342C95.112 87.651 114.337 87.651 114.337 82.342C114.338 78.197 111.71 74.6761 108.034 73.3261Z" fill="#FFB54A"/>
<path d="M189.016 68.019H126.102C125.826 68.019 125.602 67.795 125.602 67.519C125.602 67.243 125.826 67.019 126.102 67.019H189.016C189.292 67.019 189.516 67.243 189.516 67.519C189.516 67.795 189.292 68.019 189.016 68.019Z" fill="white"/>
<path d="M179.256 82.781H126.103C125.827 82.781 125.603 82.557 125.603 82.281C125.603 82.005 125.827 81.781 126.103 81.781H179.256C179.532 81.781 179.756 82.005 179.756 82.281C179.756 82.558 179.532 82.781 179.256 82.781Z" fill="white"/>
<path d="M164.781 75.8669H126.103C125.827 75.8669 125.603 75.6429 125.603 75.3669C125.603 75.0909 125.827 74.8669 126.103 74.8669H164.781C165.057 74.8669 165.281 75.0909 165.281 75.3669C165.281 75.6429 165.057 75.8669 164.781 75.8669Z" fill="white"/>
<path d="M189.016 75.8669H169.604C169.328 75.8669 169.104 75.6429 169.104 75.3669C169.104 75.0909 169.328 74.8669 169.604 74.8669H189.016C189.292 74.8669 189.516 75.0909 189.516 75.3669C189.516 75.6429 189.292 75.8669 189.016 75.8669Z" fill="white"/>
<path d="M110.944 80.8501C110.56 80.8501 110.177 80.7041 109.884 80.4111L106.116 76.6431C105.53 76.0571 105.53 75.1071 106.116 74.5221C106.702 73.9361 107.651 73.9361 108.237 74.5221L110.944 77.2301L118.219 69.9561C118.805 69.3701 119.754 69.3701 120.34 69.9561C120.926 70.5411 120.926 71.4921 120.34 72.0771L112.005 80.4121C111.712 80.7031 111.328 80.8501 110.944 80.8501Z" fill="white"/>
<path d="M579.508 144.38H669.589C678.854 144.38 686.364 151.891 686.364 161.155C686.364 170.42 678.853 177.93 669.589 177.93H595.352L585.139 187.237V177.93H579.509C570.244 177.93 562.734 170.42 562.734 161.155C562.732 151.891 570.243 144.38 579.508 144.38Z" fill="#FFB54A"/>
<path d="M667.573 158.689C668.718 157.738 669.447 156.305 669.447 154.7C669.447 151.837 667.126 149.517 664.264 149.517C661.401 149.517 659.081 151.838 659.081 154.7C659.081 156.304 659.81 157.738 660.955 158.689C657.279 160.039 654.651 163.56 654.651 167.705C654.651 173.014 673.876 173.014 673.876 167.705C673.876 163.561 671.249 160.04 667.573 158.689Z" fill="#4E69FF"/>
<path d="M675.467 161.574H672.984V159.091C672.984 158.822 672.766 158.604 672.497 158.604H670.231C669.962 158.604 669.744 158.822 669.744 159.091V161.574H667.261C666.992 161.574 666.774 161.792 666.774 162.061V164.327C666.774 164.596 666.992 164.814 667.261 164.814H669.744V167.297C669.744 167.566 669.962 167.784 670.231 167.784H672.497C672.766 167.784 672.984 167.566 672.984 167.297V164.814H675.467C675.736 164.814 675.954 164.596 675.954 164.327V162.061C675.954 161.792 675.736 161.574 675.467 161.574Z" fill="white"/>
<path d="M646.783 154.383H583.87C583.594 154.383 583.37 154.159 583.37 153.883C583.37 153.607 583.594 153.383 583.87 153.383H646.783C647.059 153.383 647.283 153.607 647.283 153.883C647.283 154.159 647.06 154.383 646.783 154.383Z" fill="white"/>
<path d="M637.022 169.145H583.87C583.594 169.145 583.37 168.921 583.37 168.645C583.37 168.369 583.594 168.145 583.87 168.145H637.022C637.298 168.145 637.522 168.369 637.522 168.645C637.522 168.921 637.299 169.145 637.022 169.145Z" fill="white"/>
<path d="M622.548 162.231H583.87C583.594 162.231 583.37 162.007 583.37 161.731C583.37 161.455 583.594 161.231 583.87 161.231H622.548C622.824 161.231 623.048 161.455 623.048 161.731C623.048 162.007 622.824 162.231 622.548 162.231Z" fill="white"/>
<path d="M646.783 162.231H627.371C627.095 162.231 626.871 162.007 626.871 161.731C626.871 161.455 627.095 161.231 627.371 161.231H646.783C647.059 161.231 647.283 161.455 647.283 161.731C647.283 162.007 647.06 162.231 646.783 162.231Z" fill="white"/>
<path d="M466.277 47.6731H528.332C534.714 47.6731 539.888 52.8471 539.888 59.2291C539.888 65.6111 534.714 70.7851 528.332 70.7851H470.156H466.278C459.896 70.7851 454.722 65.6111 454.722 59.2291C454.721 52.8471 459.895 47.6731 466.277 47.6731Z" fill="#4E69FF"/>
<path d="M521.326 55.4282H473.214C472.938 55.4282 472.714 55.2042 472.714 54.9282C472.714 54.6522 472.938 54.4282 473.214 54.4282H521.326C521.602 54.4282 521.826 54.6522 521.826 54.9282C521.826 55.2042 521.602 55.4282 521.326 55.4282Z" fill="white"/>
<path d="M513.862 64.1702H473.214C472.938 64.1702 472.714 63.9462 472.714 63.6702C472.714 63.3942 472.938 63.1702 473.214 63.1702H513.862C514.138 63.1702 514.362 63.3942 514.362 63.6702C514.362 63.9462 514.139 64.1702 513.862 64.1702Z" fill="white"/>
<path d="M502.793 60.0752H473.214C472.938 60.0752 472.714 59.8512 472.714 59.5752C472.714 59.2992 472.938 59.0752 473.214 59.0752H502.793C503.069 59.0752 503.293 59.2992 503.293 59.5752C503.293 59.8522 503.069 60.0752 502.793 60.0752Z" fill="white"/>
<path d="M521.326 60.0752H506.481C506.205 60.0752 505.981 59.8512 505.981 59.5752C505.981 59.2992 506.205 59.0752 506.481 59.0752H521.326C521.602 59.0752 521.826 59.2992 521.826 59.5752C521.826 59.8522 521.602 60.0752 521.326 60.0752Z" fill="white"/>
<path d="M45.698 211.504H100.875C106.55 211.504 111.15 216.104 111.15 221.779C111.15 227.454 106.55 232.054 100.875 232.054H49.147H45.698C40.023 232.054 35.423 227.454 35.423 221.779C35.423 216.104 40.023 211.504 45.698 211.504Z" fill="#FFB54A"/>
<path d="M94.647 218.455H51.867C51.591 218.455 51.367 218.231 51.367 217.955C51.367 217.679 51.591 217.455 51.867 217.455H94.647C94.923 217.455 95.147 217.679 95.147 217.955C95.147 218.231 94.923 218.455 94.647 218.455Z" fill="white"/>
<path d="M88.01 226.228H51.867C51.591 226.228 51.367 226.004 51.367 225.728C51.367 225.452 51.591 225.228 51.867 225.228H88.01C88.286 225.228 88.51 225.452 88.51 225.728C88.51 226.005 88.286 226.228 88.01 226.228Z" fill="white"/>
<path d="M78.167 222.587H51.867C51.591 222.587 51.367 222.363 51.367 222.087C51.367 221.811 51.591 221.587 51.867 221.587H78.167C78.443 221.587 78.667 221.811 78.667 222.087C78.667 222.363 78.443 222.587 78.167 222.587Z" fill="white"/>
<path d="M94.647 222.587H81.447C81.171 222.587 80.947 222.363 80.947 222.087C80.947 221.811 81.171 221.587 81.447 221.587H94.647C94.923 221.587 95.147 221.811 95.147 222.087C95.147 222.363 94.923 222.587 94.647 222.587Z" fill="white"/>
<path d="M453.516 267.066H355.48C355.204 267.066 354.98 266.842 354.98 266.566C354.98 266.29 355.204 266.066 355.48 266.066H453.515C453.791 266.066 454.015 266.29 454.015 266.566C454.015 266.842 453.792 267.066 453.516 267.066Z" fill="white"/>
<path d="M453.516 290.07H370.69C370.414 290.07 370.19 289.846 370.19 289.57C370.19 289.294 370.414 289.07 370.69 289.07H453.516C453.792 289.07 454.016 289.294 454.016 289.57C454.016 289.846 453.792 290.07 453.516 290.07Z" fill="white"/>
<path d="M453.516 279.296H393.245C392.969 279.296 392.745 279.072 392.745 278.796C392.745 278.52 392.969 278.296 393.245 278.296H453.516C453.792 278.296 454.016 278.52 454.016 278.796C454.016 279.072 453.792 279.296 453.516 279.296Z" fill="white"/>
<path d="M385.728 279.296H355.48C355.204 279.296 354.98 279.072 354.98 278.796C354.98 278.52 355.204 278.296 355.48 278.296H385.728C386.004 278.296 386.228 278.52 386.228 278.796C386.228 279.072 386.005 279.296 385.728 279.296Z" fill="white"/>
<path d="M342.638 303.556H244.603C244.327 303.556 244.103 303.332 244.103 303.056C244.103 302.78 244.327 302.556 244.603 302.556H342.638C342.914 302.556 343.138 302.78 343.138 303.056C343.138 303.332 342.914 303.556 342.638 303.556Z" fill="white"/>
<path d="M327.428 326.559H244.602C244.326 326.559 244.102 326.335 244.102 326.059C244.102 325.783 244.326 325.559 244.602 325.559H327.428C327.704 325.559 327.928 325.783 327.928 326.059C327.928 326.335 327.705 326.559 327.428 326.559Z" fill="white"/>
<path d="M304.873 315.785H244.603C244.327 315.785 244.103 315.561 244.103 315.285C244.103 315.009 244.327 314.785 244.603 314.785H304.873C305.149 314.785 305.373 315.009 305.373 315.285C305.373 315.561 305.149 315.785 304.873 315.785Z" fill="white"/>
<path d="M342.638 315.785H312.389C312.113 315.785 311.889 315.561 311.889 315.285C311.889 315.009 312.113 314.785 312.389 314.785H342.638C342.914 314.785 343.138 315.009 343.138 315.285C343.138 315.561 342.914 315.785 342.638 315.785Z" fill="white"/>
<path d="M416.551 210.647L416.584 210.532L431.062 160.166L431 160.119C431.651 158.845 433.339 156.111 436.792 153.702C442.761 149.539 443.473 142.642 443.473 142.642C446.66 139.557 450.253 136.925 453.507 133.912C453.846 133.598 454.2 133.253 454.3 132.801C454.411 132.297 454.176 131.782 453.888 131.354C452.208 128.865 449.122 128.505 446.554 129.655C445.05 130.328 443.705 131.286 442.445 132.339C441.847 132.838 439.807 134.211 439.188 135.125L450.705 110.535C451.728 108.352 451.058 105.86 449.218 104.998C448.298 104.567 447.252 104.622 446.309 105.058C445.711 105.334 445.165 105.778 444.707 106.333C444.742 106.153 444.763 106.046 444.763 106.046C431.275 94.704 414.632 133.309 414.632 133.309L409.908 144.455L369.847 218.732C364.182 229.509 368.549 242.836 379.493 248.171C379.651 248.248 379.81 248.315 379.968 248.388C383.18 250.242 386.904 251.308 390.879 251.308H469.719L486.708 210.931L416.551 210.647Z" fill="#FEC29E"/>
<path opacity="0.17" d="M403.049 251.287C402.038 251.256 400.487 251.209 403.049 251.287Z" fill="#FF887C"/>
<path opacity="0.17" d="M403.063 251.287C403.422 251.298 403.709 251.307 403.709 251.307C403.464 251.299 403.258 251.293 403.063 251.287Z" fill="#FF887C"/>
<path opacity="0.17" d="M416.584 210.532L414.29 218.512C413.694 220.727 413.005 223.106 412.272 225.532L409.5 235.176C409.117 236.413 408.632 237.586 408.063 238.694C405.677 245.833 403.708 251.307 403.708 251.307L432.061 210.709C425.009 210.709 423.391 210.54 416.584 210.532Z" fill="#FF887C"/>
<path d="M427.999 137.637C427.895 137.637 427.792 137.605 427.702 137.539C427.48 137.375 427.432 137.062 427.597 136.84C432.629 130.015 439.394 133.703 439.46 133.74C439.7 133.875 439.785 134.179 439.65 134.42C439.516 134.66 439.211 134.746 438.97 134.613C438.724 134.476 432.901 131.332 428.401 137.434C428.304 137.567 428.152 137.637 427.999 137.637Z" fill="#FB8E77"/>
<path d="M444.99 106.236C442.912 108.855 440.977 111.61 439.264 114.474C438.41 115.908 437.637 117.387 436.989 118.906C436.352 120.413 435.836 122.033 435.918 123.561L435.92 123.592C435.935 123.868 435.723 124.103 435.448 124.118C435.172 124.133 434.937 123.921 434.922 123.646C434.922 123.643 434.922 123.637 434.921 123.634C434.867 121.775 435.479 120.113 436.163 118.553C436.866 116.992 437.686 115.5 438.582 114.062C440.381 111.188 442.376 108.465 444.532 105.857C444.637 105.73 444.825 105.712 444.952 105.817C445.077 105.921 445.096 106.105 444.996 106.232L444.99 106.236Z" fill="#FB8E77"/>
<path d="M441.514 104.809C440.195 105.717 439.01 106.92 437.95 108.169C436.889 109.432 435.958 110.801 435.119 112.222C434.297 113.655 433.573 115.143 432.957 116.676C432.63 117.435 432.386 118.227 432.097 119L431.38 121.374L431.371 121.403C431.291 121.667 431.012 121.817 430.748 121.737C430.484 121.657 430.334 121.378 430.414 121.114C430.415 121.112 430.416 121.107 430.417 121.105L431.196 118.691C431.507 117.904 431.772 117.1 432.121 116.328C432.782 114.77 433.552 113.259 434.423 111.807C435.311 110.365 436.292 108.979 437.408 107.702C438.535 106.43 439.734 105.24 441.192 104.277C441.335 104.183 441.527 104.222 441.622 104.365C441.715 104.506 441.678 104.696 441.539 104.791L441.514 104.809Z" fill="#FB8E77"/>
<path d="M436.061 105.193C434.147 107.197 432.365 109.362 430.825 111.663C430.065 112.819 429.335 113.999 428.761 115.244C428.184 116.483 427.707 117.771 427.499 119.085L427.497 119.097C427.454 119.37 427.198 119.556 426.925 119.513C426.652 119.47 426.466 119.214 426.509 118.941C426.509 118.938 426.51 118.932 426.511 118.929C426.778 117.476 427.322 116.13 427.956 114.851C428.588 113.567 429.366 112.377 430.172 111.216C431.807 108.904 433.65 106.774 435.652 104.779C435.766 104.665 435.95 104.666 436.064 104.78C436.176 104.892 436.177 105.073 436.069 105.187L436.061 105.193Z" fill="#FB8E77"/>
<path d="M598.513 283.984L579.173 231.267C576.871 219.699 565.866 210.93 552.627 210.93L498.605 210.501L437.742 210.733V251.308H456.63L446.881 357.134L580.902 357.892L580.151 286.232L598.513 283.984Z" fill="#4E69FF"/>
<path opacity="0.05" d="M498.5 210.952L498.606 210.5L437.743 210.732V251.307H456.631L456.73 250.236C456.73 228.822 475.346 211.421 498.5 210.952Z" fill="#1B1B25"/>
<path opacity="0.18" d="M421.584 152.238C421.584 152.238 425 181.253 425.201 180.554C425.402 179.855 431.062 160.166 431.062 160.166L421.584 152.238Z" fill="#FF887C"/>
<path d="M501.361 299.13L496.246 273.352L492.3 253.463C491.836 251.123 489.542 249.589 487.202 250.053L467.446 253.973C465.106 254.437 463.572 256.731 464.036 259.071L468.008 279.089L471.158 294.966L473.097 304.738C473.561 307.078 475.855 308.612 478.195 308.148L489.863 305.833L497.95 304.228C500.29 303.763 501.825 301.469 501.361 299.13Z" fill="#1B1B25"/>
<path d="M606.518 322.887L597.609 284.095L557.104 289.051L559.328 298.918L559.123 298.867L515.092 287.967L515.054 288.021C513.839 287.412 511.556 285.961 509.549 282.96C505.857 277.443 499.655 277.291 499.655 277.291C498.46 276.039 497.347 274.702 496.246 273.352L497.278 278.551L497.02 278.688C494.221 280.171 491.063 280.829 487.904 280.582C482.06 280.126 472.513 279.381 468.544 279.071C467.332 278.976 466.169 279.62 465.647 280.718C459.98 292.63 484.312 303.528 489.864 305.832H489.863C489.936 305.862 489.992 305.885 490.059 305.913C490.139 305.946 490.216 305.978 490.286 306.006C490.367 306.039 490.431 306.065 490.498 306.092C490.561 306.117 490.624 306.143 490.675 306.163C490.746 306.191 490.794 306.21 490.841 306.228C490.862 306.237 490.888 306.247 490.905 306.253C490.958 306.274 490.988 306.285 490.988 306.285L500.511 309.855L575.895 346.961C576.595 347.296 577.303 347.589 578.018 347.843C581.673 349.517 585.88 350.061 590.102 349.092C601.871 346.389 609.221 334.657 606.518 322.887Z" fill="#FEC29E"/>
<path opacity="0.17" d="M603.646 310.381L557.105 289.05C558.659 295.818 557.754 292.831 559.124 298.866L562.291 299.65C575.693 300.555 603.646 310.381 603.646 310.381Z" fill="#FF887C"/>
<path opacity="0.35" d="M553.344 289.551C553.111 289.551 552.903 289.387 552.856 289.153L547.041 260.985C546.984 260.714 547.159 260.45 547.429 260.394C547.694 260.332 547.964 260.51 548.02 260.782L553.743 288.497L573.328 286.005C573.599 285.966 573.852 286.163 573.888 286.438C573.923 286.712 573.729 286.962 573.455 286.998L553.41 289.549C553.387 289.55 553.365 289.551 553.344 289.551Z" fill="#1B1B25"/>
<path opacity="0.17" d="M603.963 311.984C604.001 312.175 604.031 312.327 604.042 312.383C604.034 312.343 604.009 312.216 603.963 311.984Z" fill="#FF887C"/>
<path opacity="0.17" d="M604.042 312.383C604.048 312.411 604.047 312.407 604.042 312.383Z" fill="#FF887C"/>
<path opacity="0.17" d="M603.646 310.381C603.646 310.381 603.754 310.925 603.857 311.449C603.801 311.165 603.734 310.828 603.646 310.381Z" fill="#FF887C"/>
<path opacity="0.17" d="M603.857 311.45C603.9 311.667 603.936 311.849 603.963 311.985C603.932 311.826 603.895 311.641 603.857 311.45Z" fill="#FF887C"/>
<path d="M548.758 106.491C547.526 97.999 539.777 91.956 531.189 92.927C528.91 93.185 526.804 93.919 524.943 95.006C522.18 90.484 516.978 87.714 511.365 88.349C508.157 88.712 505.335 90.137 503.181 92.22C500.082 90.667 496.519 89.954 492.818 90.373C482.649 91.523 475.337 100.699 476.487 110.868C477.025 115.624 479.323 119.749 482.653 122.681L478.887 142.799C477.806 148.574 481.611 154.132 487.386 155.214L532.01 163.568C537.785 164.649 543.343 160.844 544.425 155.068L551.735 116.015C552.41 112.41 551.181 108.891 548.758 106.491Z" fill="#1B1B25"/>
<path d="M483.718 117.492C483.553 117.492 483.391 117.409 483.295 117.259C475.324 104.645 486.303 96.5559 486.415 96.4759C486.64 96.3139 486.95 96.3669 487.112 96.5909C487.272 96.8149 487.221 97.1269 486.998 97.2879C486.573 97.5939 476.68 104.918 484.141 116.724C484.289 116.957 484.219 117.267 483.986 117.414C483.902 117.467 483.81 117.492 483.718 117.492Z" fill="#FCF0E3"/>
<path d="M541.54 145.93L540.564 145.747L530.713 124.574C528.289 124.224 526.018 123.33 524.048 121.997C522.158 124.043 519.559 125.453 516.574 125.79C512.982 126.196 509.589 124.968 507.114 122.708C504.368 125.121 500.89 126.756 496.982 127.198C492.513 127.703 488.237 126.572 484.748 124.285L477.886 160.939C476.938 166.003 477.978 170.967 480.428 175.066C482.866 181.097 488.111 185.834 494.858 187.388V211.593C494.858 220.001 501.738 226.881 510.146 226.881H514.968C523.376 226.881 530.256 220.002 530.256 211.593V184.11C532.736 181.385 534.53 177.977 535.257 174.089L536.51 167.396L537.486 167.579C543.278 168.663 548.904 164.811 549.988 159.019L550.098 158.432C551.184 152.64 547.332 147.014 541.54 145.93Z" fill="#FEC29E"/>
<path opacity="0.32" d="M534.242 166.547L533.348 171.322C531.286 182.337 520.685 189.595 509.67 187.533L494.097 184.618C488.146 183.504 483.309 179.886 480.429 175.068C482.968 181.349 488.539 186.251 495.692 187.59L496.313 187.706C498.788 192.833 504.029 196.401 510.077 196.401H514.961C522.175 196.401 528.25 191.331 529.834 184.581C532.539 181.786 534.488 178.199 535.258 174.089L536.511 167.396L534.242 166.547Z" fill="#FF887C"/>
<path d="M542.396 160.287C542.289 160.287 542.18 160.253 542.089 160.182L538.198 157.162C538.083 157.073 538.013 156.937 538.006 156.791C537.998 156.646 538.056 156.504 538.162 156.403L542.96 151.874C543.159 151.686 543.479 151.694 543.666 151.895C543.855 152.096 543.847 152.412 543.645 152.602L539.272 156.73L542.702 159.392C542.92 159.561 542.96 159.875 542.79 160.094C542.693 160.22 542.545 160.287 542.396 160.287Z" fill="#FB8E77"/>
<path d="M517.653 141.68C516.902 141.658 516.129 141.203 515.356 140.806C514.586 140.39 513.803 139.991 513.111 139.669C512.417 139.345 511.607 139.001 510.794 138.679C509.993 138.342 509.143 138.04 508.653 137.483C508.175 136.954 508.269 136.119 509.387 135.561C510.452 135.006 512.621 134.875 514.92 135.94C517.211 137.015 518.476 138.748 518.71 139.908C518.973 141.111 518.373 141.709 517.653 141.68Z" fill="#1B1B25"/>
<path d="M485.836 138.938C486.484 139.295 487.378 139.344 488.242 139.435C489.113 139.51 489.986 139.605 490.743 139.712C491.501 139.818 492.368 139.967 493.227 140.133C494.083 140.282 494.962 140.482 495.671 140.315C496.355 140.162 496.715 139.5 496.061 138.532C495.451 137.594 493.683 136.419 491.175 136.062C488.668 135.717 486.684 136.366 485.875 137.106C485.018 137.862 485.21 138.602 485.836 138.938Z" fill="#1B1B25"/>
<path d="M510.298 150.228L510.366 150.241C511.035 150.366 511.685 149.921 511.81 149.252L512.107 147.668C512.232 146.999 511.787 146.349 511.118 146.224L511.05 146.211C510.381 146.086 509.731 146.531 509.606 147.199L509.309 148.783C509.185 149.454 509.63 150.103 510.298 150.228Z" fill="#1B1B25"/>
<path d="M488.744 146.726L488.812 146.739C489.481 146.864 490.131 146.419 490.256 145.751L490.553 144.167C490.678 143.498 490.233 142.848 489.564 142.723L489.496 142.71C488.827 142.585 488.177 143.03 488.052 143.698L487.755 145.282C487.63 145.951 488.075 146.601 488.744 146.726Z" fill="#1B1B25"/>
<path opacity="0.17" d="M511.188 155.959L515.613 156.457C516.451 156.551 517.213 155.943 517.307 155.106L517.317 155.021C517.411 154.183 516.803 153.421 515.966 153.327L511.541 152.829C510.703 152.735 509.941 153.343 509.847 154.18L509.837 154.265C509.742 155.103 510.35 155.865 511.188 155.959Z" fill="#FF887C"/>
<path opacity="0.17" d="M482.003 151.362L486.428 151.86C487.266 151.954 488.028 151.346 488.122 150.509L488.132 150.424C488.226 149.586 487.618 148.824 486.781 148.73L482.356 148.232C481.519 148.138 480.756 148.746 480.662 149.583L480.652 149.668C480.558 150.505 481.166 151.268 482.003 151.362Z" fill="#FF887C"/>
<path d="M494.899 174.001C494.746 174.001 494.593 173.93 494.496 173.796C494.333 173.573 494.382 173.26 494.604 173.097C496.7 171.566 499.047 172.425 499.996 173.092C500.222 173.251 500.276 173.561 500.118 173.787C499.96 174.013 499.648 174.067 499.423 173.911C499.334 173.848 497.226 172.42 495.194 173.905C495.105 173.969 495.002 174.001 494.899 174.001Z" fill="#FB8E77"/>
<path d="M498.281 159.786L509.975 158.115L508.694 162.177C507.874 164.778 505.462 166.546 502.735 166.546C500.614 166.546 498.834 164.947 498.607 162.838L498.281 159.786Z" fill="white"/>
<path d="M501.305 155.641C501.264 155.641 501.221 155.636 501.179 155.625L497.553 154.681C496.015 154.281 494.775 153.213 494.149 151.753C493.524 150.292 493.607 148.657 494.378 147.269L499.9 137.33C500.036 137.086 500.34 137.002 500.581 137.136C500.822 137.27 500.909 137.575 500.775 137.816L495.253 147.755C494.632 148.872 494.565 150.186 495.068 151.36C495.571 152.535 496.568 153.393 497.804 153.715L501.43 154.659C501.698 154.728 501.858 155.002 501.787 155.269C501.73 155.492 501.527 155.641 501.305 155.641Z" fill="#FB8E77"/>
<path d="M331.484 227.537L291.423 153.26L286.699 142.115C286.699 142.115 270.056 103.51 256.568 114.852C256.568 114.852 256.589 114.959 256.624 115.138C256.166 114.583 255.62 114.139 255.022 113.863C254.078 113.427 253.033 113.373 252.113 113.804C250.273 114.666 249.604 117.158 250.626 119.341L262.143 143.931C261.523 143.017 259.483 141.645 258.886 141.145C257.626 140.092 256.281 139.134 254.777 138.461C252.209 137.311 249.123 137.671 247.443 140.16C247.154 140.588 246.92 141.103 247.031 141.607C247.13 142.059 247.484 142.404 247.824 142.718C251.078 145.732 254.67 148.363 257.857 151.448C257.857 151.448 258.57 158.345 264.538 162.508C267.991 164.917 269.679 167.651 270.33 168.925L270.268 168.972L284.779 219.453L263.588 219.736V260.113H310.453C314.433 260.113 318.161 259.044 321.376 257.186C321.53 257.115 321.686 257.051 321.839 256.976C332.782 251.641 337.149 238.314 331.484 227.537Z" fill="#FEC29E"/>
<path opacity="0.17" d="M297.621 260.113C297.621 260.113 286.731 230.814 284.86 219.337C277.644 219.337 276.547 219.659 269.332 219.659L297.621 260.113Z" fill="#FF887C"/>
<path d="M273.331 146.443C273.178 146.443 273.026 146.373 272.928 146.24C268.429 140.138 262.604 143.282 262.359 143.42C262.118 143.553 261.814 143.468 261.679 143.227C261.544 142.987 261.63 142.683 261.87 142.547C261.938 142.509 268.702 138.824 273.733 145.646C273.897 145.868 273.85 146.182 273.628 146.345C273.538 146.412 273.434 146.443 273.331 146.443Z" fill="#FB8E77"/>
<path d="M256.778 114.639C257.992 115.851 259.095 117.138 260.146 118.478C261.19 119.822 262.168 121.22 263.044 122.688C263.906 124.163 264.674 125.7 265.285 127.311C265.863 128.935 266.273 130.63 266.41 132.377C266.432 132.652 266.226 132.893 265.951 132.914C265.676 132.936 265.435 132.73 265.413 132.455C265.413 132.453 265.413 132.45 265.413 132.448L265.412 132.427C265.315 130.799 264.963 129.183 264.439 127.614C263.883 126.054 263.168 124.546 262.355 123.089C261.528 121.638 260.595 120.245 259.594 118.902C258.589 117.565 257.514 116.262 256.361 115.063L256.354 115.056C256.24 114.937 256.243 114.749 256.362 114.635C256.478 114.523 256.663 114.525 256.778 114.639Z" fill="#FB8E77"/>
<path d="M260.159 112.716C261.79 113.559 262.985 114.814 264.103 116.134C265.201 117.467 266.157 118.909 266.978 120.418C267.826 121.915 268.527 123.483 269.194 125.063L270.103 127.467L270.911 129.905C270.998 130.167 270.856 130.45 270.594 130.537C270.332 130.624 270.049 130.482 269.962 130.22C269.961 130.218 269.961 130.216 269.96 130.214L269.953 130.192L269.202 127.777L268.352 125.397C267.727 123.835 267.068 122.283 266.266 120.807C265.491 119.317 264.586 117.896 263.548 116.587C262.517 115.302 261.305 114.039 259.917 113.289L259.87 113.264C259.72 113.183 259.664 112.995 259.745 112.845C259.825 112.695 260.009 112.639 260.159 112.716Z" fill="#FB8E77"/>
<path d="M265.652 113.562C266.775 114.468 267.767 115.471 268.706 116.539C269.642 117.605 270.505 118.738 271.275 119.933C272.051 121.123 272.752 122.368 273.333 123.67C273.947 124.959 274.397 126.318 274.808 127.687C274.887 127.951 274.738 128.23 274.473 128.31C274.209 128.389 273.93 128.24 273.85 127.975C273.849 127.972 273.848 127.969 273.847 127.966L273.84 127.941C273.476 126.616 273.077 125.294 272.513 124.033C271.982 122.76 271.332 121.535 270.606 120.358C269.886 119.176 269.072 118.05 268.183 116.987C267.298 115.926 266.332 114.905 265.293 114.023L265.28 114.012C265.157 113.908 265.142 113.724 265.246 113.601C265.35 113.48 265.53 113.464 265.652 113.562Z" fill="#FB8E77"/>
<path opacity="0.18" d="M268.463 166.117L283.944 164.206L274.371 183.247C274.371 183.247 271.522 169.088 268.463 166.117Z" fill="#FF887C"/>
<path d="M206.253 219.736L206.256 219.754C206.017 219.748 205.78 219.736 205.54 219.736H156.623C146.003 219.736 136.944 226.404 133.394 235.781L133.389 235.78L133.314 235.983C133.302 236.015 133.29 236.048 133.278 236.08L112.474 292.791L131.788 295.154V358.133H236.9L244.76 260.113H263.045V219.538L206.253 219.736Z" fill="white"/>
<path opacity="0.05" d="M263.587 219.539L207.744 219.772L207.745 219.779C228.681 220.651 245.388 237.892 245.388 259.043L245.302 260.114H263.587V219.539Z" fill="#1B1B25"/>
<path d="M244.083 262.779L224.327 258.859C221.987 258.395 219.693 259.929 219.229 262.269L215.283 282.158L210.168 307.936C209.704 310.276 211.238 312.57 213.578 313.034L221.665 314.639L233.333 316.954C235.673 317.418 237.967 315.884 238.431 313.544L240.37 303.772L243.52 287.895L247.492 267.877C247.957 265.537 246.423 263.243 244.083 262.779Z" fill="#1B1B25"/>
<path d="M246.154 289.322C245.908 288.805 245.516 288.393 245.048 288.107C244.964 287.983 244.896 287.859 244.805 287.735C244.805 287.735 244.627 287.757 244.332 287.794C243.989 287.694 243.627 287.647 243.258 287.675C239.29 287.985 229.742 288.73 223.898 289.186C220.74 289.432 217.582 288.775 214.783 287.292L214.316 287.044L215.285 282.158C214.24 283.439 213.179 284.704 212.053 285.9C211.482 285.932 208.222 286.221 205.173 288.494C204.042 289.291 202.929 290.349 201.981 291.765C200.791 293.544 199.506 294.772 198.401 295.609C197.755 296.074 197.181 296.406 196.747 296.624L196.709 296.57L152.675 307.471L152.473 307.521L154.708 297.607L114.193 292.699L105.284 331.491C102.581 343.26 109.931 354.992 121.7 357.695C125.922 358.665 130.129 358.12 133.784 356.446C134.499 356.192 135.207 355.899 135.907 355.564L210.44 318.877L220.543 315.09C220.543 315.09 220.952 314.933 221.667 314.637L221.519 314.608C226.128 312.732 251.975 301.56 246.154 289.322Z" fill="#FEC29E"/>
<path opacity="0.17" d="M107.574 320.756C107.532 320.968 107.506 321.097 107.495 321.157C107.509 321.084 107.537 320.94 107.574 320.756Z" fill="#FF887C"/>
<path opacity="0.17" d="M152.403 307.674C153.315 303.476 153.051 303.838 154.436 297.81L107.884 319.188C107.884 319.188 112.497 317.799 118.862 316.11C119.454 315.894 120.056 315.695 120.677 315.528L152.403 307.674Z" fill="#FF887C"/>
<path opacity="0.17" d="M107.687 320.184C107.647 320.386 107.608 320.584 107.574 320.756C107.602 320.61 107.64 320.418 107.687 320.184Z" fill="#FF887C"/>
<path opacity="0.17" d="M107.494 321.157C107.482 321.219 107.482 321.216 107.494 321.157Z" fill="#FF887C"/>
<path opacity="0.17" d="M107.884 319.188C107.803 319.598 107.741 319.912 107.687 320.184C107.786 319.683 107.884 319.188 107.884 319.188Z" fill="#FF887C"/>
<path opacity="0.35" d="M158.186 298.31C158.165 298.31 158.145 298.309 158.124 298.306L149.286 297.215C149.012 297.182 148.817 296.932 148.851 296.657C148.885 296.384 149.139 296.186 149.408 296.222L157.766 297.253L162.419 267.559C162.462 267.286 162.717 267.103 162.991 267.142C163.264 267.185 163.45 267.441 163.408 267.713L158.679 297.886C158.641 298.133 158.428 298.31 158.186 298.31Z" fill="#1B1B25"/>
<path opacity="0.08" d="M168.511 303.52L188.466 303.02C192.189 303.509 198.115 300.151 197.427 296.459L168.511 303.52Z" fill="#FF887C"/>
<path d="M231.467 206.961L224.681 160.773C223.938 155.713 222.467 150.941 220.405 146.536L224.09 145.944C224.09 145.944 221.503 108.454 179.456 117.405C175.314 116.977 171.054 117.049 166.745 117.682C146.318 120.683 132.192 139.675 135.193 160.102L139.149 187.027C142.15 207.454 161.142 221.58 181.569 218.579L227.888 211.773C230.206 211.432 231.808 209.278 231.467 206.961Z" fill="#1B1B25"/>
<path d="M203.574 144.473C203.328 144.473 203.114 144.291 203.079 144.041C203.042 143.767 203.233 143.515 203.507 143.477L217.028 141.63C217.136 141.615 217.235 141.556 217.299 141.467C217.335 141.418 217.391 141.315 217.367 141.181C215.181 128.993 203.953 123.37 203.84 123.315C203.592 123.194 203.489 122.894 203.61 122.646C203.732 122.398 204.033 122.294 204.279 122.416C204.397 122.473 216.073 128.306 218.351 141.003C218.417 141.373 218.331 141.746 218.107 142.053C217.883 142.362 217.539 142.568 217.162 142.619L203.641 144.466C203.619 144.472 203.596 144.473 203.574 144.473Z" fill="#FCF0E3"/>
<path d="M216.599 147.147L179.587 153.094L170.604 139.808C172.369 154.632 161.438 164.207 161.438 164.207C161.438 164.207 161.326 164.054 161.132 163.773L160.825 163.83C155.033 164.914 151.181 170.54 152.265 176.332C153.349 182.124 158.975 185.976 164.767 184.892L165.474 184.76C166.739 190.314 169.593 195.125 173.484 198.779V222.5C173.484 230.908 180.364 237.788 188.772 237.788C197.18 237.788 204.06 230.908 204.06 222.5V203.767C210.15 200.964 214.918 196.069 217.64 190.15C217.646 190.141 217.652 190.132 217.657 190.123C220.965 184.581 222.348 177.86 221.068 171.017L216.599 147.147Z" fill="#FEC29E"/>
<path opacity="0.32" d="M199.139 203.046C185.426 205.613 172.187 197.501 167.991 184.577C167.853 184.153 165.438 184.708 165.499 184.968C166.795 190.472 169.674 195.229 173.556 198.848C174.274 206.602 180.839 212.727 188.772 212.727C194.639 212.727 199.754 209.372 202.314 204.49C209.248 201.86 214.682 196.605 217.656 190.123C213.761 196.648 207.196 201.537 199.139 203.046Z" fill="#FF887C"/>
<path d="M159.705 177.864C159.556 177.864 159.408 177.798 159.31 177.671C159.14 177.453 159.18 177.139 159.398 176.969L162.723 174.389L158.479 170.384C158.278 170.195 158.269 169.878 158.458 169.677C158.648 169.476 158.964 169.468 159.165 169.656L163.834 174.062C163.94 174.163 163.997 174.304 163.99 174.45C163.983 174.596 163.912 174.732 163.797 174.821L160.011 177.759C159.92 177.83 159.812 177.864 159.705 177.864Z" fill="#FB8E77"/>
<path d="M186.335 159.634C186.781 159.621 187.24 159.351 187.699 159.115C188.156 158.868 188.621 158.631 189.032 158.44C189.444 158.248 189.925 158.044 190.408 157.852C190.883 157.652 191.388 157.473 191.679 157.142C191.963 156.828 191.907 156.333 191.243 156.001C190.611 155.672 189.323 155.594 187.958 156.226C186.598 156.864 185.847 157.893 185.708 158.581C185.552 159.296 185.908 159.651 186.335 159.634Z" fill="#1B1B25"/>
<path d="M212.862 155.02C212.43 155.131 211.914 154.998 211.408 154.899C210.901 154.788 210.388 154.689 209.94 154.619C209.491 154.548 208.973 154.485 208.456 154.435C207.944 154.374 207.409 154.342 207.038 154.104C206.679 153.88 206.595 153.389 207.142 152.887C207.658 152.396 208.874 151.965 210.361 152.195C211.844 152.432 212.851 153.213 213.175 153.836C213.522 154.479 213.278 154.918 212.862 155.02Z" fill="#1B1B25"/>
<path d="M197.876 180.323C193.773 180.323 191.037 177.104 191.002 177.062C190.825 176.85 190.855 176.535 191.066 176.358C191.278 176.182 191.593 176.21 191.77 176.421C191.929 176.611 195.724 181.043 201.025 178.596C201.276 178.48 201.573 178.59 201.689 178.841C201.805 179.092 201.695 179.389 201.444 179.505C200.175 180.092 198.976 180.323 197.876 180.323Z" fill="#FB8E77"/>
<path d="M200.861 173.344C200.627 173.344 200.418 173.179 200.371 172.941C200.318 172.67 200.494 172.407 200.765 172.354L204.282 171.662C206.468 171.232 207.895 169.104 207.465 166.919C207.31 166.129 206.541 165.616 205.752 165.769C203.902 166.13 202.106 164.925 201.742 163.078L200.893 158.765C200.84 158.494 201.016 158.231 201.287 158.178C201.558 158.125 201.821 158.302 201.874 158.572L202.723 162.886C202.98 164.193 204.254 165.046 205.558 164.789C206.205 164.663 206.858 164.794 207.403 165.16C207.948 165.526 208.318 166.082 208.445 166.727C208.982 169.453 207.2 172.108 204.474 172.645L200.957 173.337C200.926 173.341 200.893 173.344 200.861 173.344Z" fill="#FB8E77"/>
<path d="M190.899 168.071C190.23 168.196 189.58 167.751 189.455 167.082L189.179 165.607C189.054 164.938 189.499 164.288 190.168 164.163C190.837 164.038 191.487 164.483 191.612 165.151L191.888 166.626C192.013 167.296 191.568 167.946 190.899 168.071Z" fill="#1B1B25"/>
<path d="M211.869 164.664C211.2 164.789 210.55 164.344 210.425 163.676L210.149 162.201C210.024 161.532 210.469 160.882 211.137 160.757C211.806 160.632 212.456 161.077 212.581 161.746L212.857 163.221C212.983 163.889 212.538 164.538 211.869 164.664Z" fill="#1B1B25"/>
<path opacity="0.17" d="M190.026 173.645L185.803 174.12C184.966 174.214 184.203 173.606 184.109 172.769C184.015 171.931 184.623 171.169 185.461 171.075L189.683 170.6C190.52 170.506 191.283 171.114 191.377 171.951C191.472 172.788 190.863 173.551 190.026 173.645Z" fill="#FF887C"/>
<path opacity="0.17" d="M218.419 169.172L214.196 169.647C213.359 169.741 212.596 169.133 212.502 168.296C212.408 167.458 213.016 166.696 213.854 166.602L218.077 166.127C218.914 166.033 219.677 166.641 219.771 167.478C219.864 168.316 219.256 169.078 218.419 169.172Z" fill="#FF887C"/>
<path d="M205.913 191.206C205.811 191.206 205.707 191.175 205.619 191.11C203.651 189.671 201.608 191.057 201.522 191.116C201.295 191.274 200.985 191.218 200.826 190.992C200.668 190.766 200.722 190.455 200.948 190.297C201.874 189.646 204.165 188.808 206.209 190.302C206.432 190.465 206.48 190.778 206.318 191.001C206.219 191.135 206.067 191.206 205.913 191.206Z" fill="#FB8E77"/>
</svg>
